{"title":"The Game S04E09 HDTV Xvid [rahultorrents]","uid":6232010,"size":326718039,"categoryP":"video","categoryS":"tv_shows","magnet":"?xt=urn:btih:eb11ca927e5908a3a475d0861887a4064a126b1b&amp;dn=The+Game+S04E09+HDTV+Xvid+%5Brahultorrents%5D&amp;tr=udp%3A%2F%2Ftracker.openbittorrent.com%3A80&amp;tr=udp%3A%2F%2Fopen.demonii.com%3A1337&amp;tr=udp%3A%2F%2Ftracker.coppersurfer.tk%3A6969&amp;tr=udp%3A%2F%2Fexodus.desync.com%3A6969","seeders":1,"leechers":0,"uploader":"rahulro","files":-1,"time":1299741434,"description":"Plot:\nKatherine's mind games are getting on everyone's nerves, but Damon, Stefan and Elena realize that her knowledge of Mystic Falls history will help them stay alive. Frustrated with her relationship with Matt, Caroline finds a new way to get his attention. Alaric makes a surprising confession to Jenna, and Katherine makes a different kind of confession to Damon. Stefan and Bonnie try to convince Jonas and Luka that they should all be working together, but Jonas' lack of trust leads to a violent and fiery confrontation.\n\nGeneral:\nFormat : Matroska\nFile size : 343 MiB\nDuration : 40mn 23s\nOverall bit rate : 1 189 Kbps\nWriting application : Lavf52.13.0\nWriting library : Lavf52.13.0\n\nVideo:\nID : 1\nFormat : MPEG-4 Visual\nFormat profile : Simple@L1\nFormat settings, BVOP : No\nFormat settings, QPel : No\nFormat settings, GMC : No warppoints\nFormat settings, Matrix : Default (H.263)\nCodec ID : V_MPEG4/ISO/ASP\nCodec ID/Info : Advanced Simple Profile\nDuration : 40mn 23s\nBit rate : 973 Kbps\nWidth : 624 pixels\nHeight : 352 pixels\nDisplay aspect ratio : 16:9\nFrame rate mode : Constant\nFrame rate : 23.976 fps\nColor space : YUV\nChroma subsampling : 4:2:0\nBit depth : 8 bits\nScan type : Progressive\nCompression mode : Lossy\nBits/(Pixel*Frame) : 0.185\nStream size : 281 MiB (82%)\nWriting library : Lavc51.54.0\nLanguage : English\n\nAudio:\nID : 2\nFormat : MPEG Audio\nFormat version : Version 1\nFormat profile : Layer 3\nMode : Joint stereo\nMode extension : MS Stereo\nCodec ID : A_MPEG/L3\nCodec ID/Hint : MP3\nDuration : 40mn 23s\nBit rate mode : Constant\nBit rate : 192 Kbps\nChannel(s) : 2 channels\nSampling rate : 44.1 KHz\nCompression mode : Lossy\nStream size : 55.5 MiB (16%)\nLanguage : English","torrent":{"xt":"urn:btih:eb11ca927e5908a3a475d0861887a4064a126b1b","amp;dn":"The+Game+S04E09+HDTV+Xvid+%5Brahultorrents%5D","amp;tr":["udp%3A%2F%2Ftracker.openbittorrent.com%3A80","udp%3A%2F%2Fopen.demonii.com%3A1337","udp%3A%2F%2Ftracker.coppersurfer.tk%3A6969","udp%3A%2F%2Fexodus.desync.com%3A6969"],"infoHash":"eb11ca927e5908a3a475d0861887a4064a126b1b","infoHashBuffer":{"type":"Buffer","data":[235,17,202,146,126,89,8,163,164,117,208,134,24,135,164,6,74,18,107,27]},"announce":[],"urlList":[]}}